<?xml version="1.0" standalone="no"?>
<!DOCTYPE svg PUBLIC "-//W3C//DTD SVG 20010904//EN"
 "http://www.w3.org/TR/2001/REC-SVG-20010904/DTD/svg10.dtd">
<svg version="1.0" xmlns="http://www.w3.org/2000/svg"
 width="460.000000pt" height="460.000000pt" viewBox="0 0 460.000000 460.000000"
 preserveAspectRatio="xMidYMid meet">
<metadata>
Created by potrace 1.11, written by Peter Selinger 2001-2013
</metadata>
<g transform="translate(0.000000,460.000000) scale(0.100000,-0.100000)"
fill="#000000" stroke="none">
<path d="M0 2300 l0 -2300 2300 0 2300 0 0 2300 0 2300 -2300 0 -2300 0 0
-2300z m1999 1806 l64 -64 -136 -136 -135 -136 -59 4 c-32 2 -177 16 -321 31
-145 14 -270 24 -278 21 -13 -5 -13 -10 1 -36 8 -16 20 -30 25 -30 6 0 10 -6
10 -13 0 -6 16 -34 35 -61 19 -27 35 -52 35 -56 0 -4 -12 -13 -27 -20 -16 -8
-51 -29 -79 -47 -28 -18 -54 -33 -58 -33 -3 0 -25 -13 -48 -30 -22 -16 -46
-30 -51 -30 -6 0 -23 -11 -37 -25 l-26 -25 -42 32 c-37 28 -42 37 -42 71 0 37
8 47 133 171 123 123 185 174 247 204 14 6 57 32 95 56 39 25 74 45 78 46 4 0
21 10 37 21 l29 22 31 -32 32 -31 29 20 c15 12 31 25 34 30 4 6 23 10 43 10
26 0 75 19 162 64 69 35 132 65 140 65 9 1 44 -28 79 -63z m425 -8 c-4 -7 -3
-8 4 -4 6 3 37 -3 69 -14 32 -11 72 -23 88 -26 17 -2 64 -16 106 -30 41 -13
86 -26 100 -29 53 -10 110 -28 116 -38 4 -6 1 -7 -7 -2 -9 5 -11 4 -6 -4 5 -7
16 -9 28 -5 15 4 18 3 13 -7 -6 -9 -4 -11 8 -6 9 3 19 2 23 -4 3 -6 11 -8 17
-6 6 2 19 -5 29 -15 12 -12 26 -17 38 -13 10 3 21 1 25 -5 3 -5 15 -10 25 -10
23 0 110 -41 110 -51 0 -4 -12 -17 -26 -30 -31 -29 -206 -205 -291 -294 -35
-35 -63 -61 -63 -57 0 4 -5 0 -11 -8 -7 -10 -12 -11 -15 -4 -3 6 -19 33 -36
60 -17 27 -42 69 -55 93 -14 25 -41 70 -60 100 -88 137 -107 170 -151 251 -13
25 -27 47 -31 50 -4 3 -18 24 -31 47 -13 24 -26 41 -28 38 -2 -2 5 -68 16
-147 34 -236 39 -290 27 -294 -6 -3 -67 -3 -136 -1 l-124 3 134 2 134 2 -202
197 c-111 108 -198 200 -194 204 4 4 42 12 83 18 41 6 109 20 150 30 90 23
134 26 124 9z m1005 -448 c21 -10 43 -26 50 -34 8 -9 18 -16 24 -16 13 0 87
-70 87 -83 0 -4 13 -25 29 -45 15 -20 38 -54 50 -74 l23 -38 -199 0 -199 0 7
58 c7 55 27 151 50 239 10 37 13 40 26 27 8 -8 32 -23 52 -34z m-858 -77 c13
-16 12 -17 -3 -4 -17 13 -22 21 -14 21 2 0 10 -8 17 -17z m99 -59 c0 -2 -9 0
-20 6 -11 6 -20 13 -20 16 0 2 9 0 20 -6 11 -6 20 -13 20 -16z m35 -24 c3 -6
-1 -7 -9 -4 -18 7 -21 14 -7 14 6 0 13 -4 16 -10z m-1654 -137 c13 -16 12 -17
-3 -4 -10 7 -18 15 -18 17 0 8 8 3 21 -13z m272 -173 c103 -51 187 -97 187
-102 0 -5 -4 -7 -8 -4 -5 3 -53 -8 -107 -24 -54 -17 -107 -30 -119 -30 -11 0
-56 -11 -100 -24 -45 -13 -101 -27 -126 -30 -25 -4 -51 -11 -59 -15 -15 -9
-10 -16 129 -190 25 -31 61 -76 80 -100 l35 -45 -33 19 c-17 11 -32 23 -32 27
0 4 -6 8 -14 8 -8 0 -21 6 -28 13 -7 7 -29 23 -49 35 l-36 22 14 -78 c26 -143
46 -233 55 -238 5 -3 6 -9 3 -14 -3 -5 -64 20 -134 55 -71 36 -134 65 -140 65
-5 0 -11 -25 -13 -55 l-3 -55 -57 55 c-32 30 -58 57 -58 60 0 3 30 5 66 5 l66
0 -4 38 c-4 27 3 54 24 100 15 34 28 67 28 72 0 5 11 33 23 62 44 99 51 123
55 201 2 42 8 77 13 77 6 0 8 4 5 8 -3 5 3 18 14 29 10 12 16 23 13 27 -3 3 2
8 11 12 9 3 16 12 16 20 0 8 4 14 9 14 5 0 13 10 17 22 3 12 15 30 25 41 10
11 15 25 12 31 -4 6 2 4 13 -5 10 -9 103 -58 207 -109z m-361 -1280 c26 -16
56 -30 66 -30 13 0 11 -5 -10 -25 -15 -14 -32 -25 -37 -25 -6 0 -25 -13 -43
-28 -18 -16 -50 -39 -72 -52 l-38 -23 36 70 c22 43 36 83 36 106 0 20 3 37 6
37 4 0 29 -13 56 -30z m885 -1196 c-3 -3 -12 -4 -19 -1 -8 3 -5 6 6 6 11 1 17
-2 13 -5z m-58 -101 c0 -109 -1 -108 -47 35 l-20 62 34 0 34 0 -1 -97z"/>
<path d="M1480 3950 c-18 -12 -2 -12 25 0 13 6 15 9 5 9 -8 0 -22 -4 -30 -9z"/>
<path d="M1350 3910 c-25 -10 -38 -19 -30 -19 17 1 101 37 85 38 -5 0 -30 -9
-55 -19z"/>
<path d="M1170 3850 c-8 -5 -10 -10 -5 -10 6 0 17 5 25 10 8 5 11 10 5 10 -5
0 -17 -5 -25 -10z"/>
</g>
</svg>
